<?xml version="1.0" encoding="utf-8"?>
<!-- Generator: Adobe Illustrator 22.0.1, SVG Export Plug-In . SVG Version: 6.00 Build 0)  -->
<svg version="1.1" id="Capa_1" xmlns="http://www.w3.org/2000/svg" xmlns:xlink="http://www.w3.org/1999/xlink" x="0px" y="0px"
	 viewBox="0 0 49.409 32.939" enable-background="new 0 0 49.409 32.939" xml:space="preserve">
<path fill="#FFFFFF" d="M2.745,32.939h43.919c1.516,0,2.745-1.229,2.745-2.745l0,0c0-1.516-1.229-2.745-2.745-2.745H2.745
	C1.229,27.449,0,28.678,0,30.194l0,0C0,31.71,1.229,32.939,2.745,32.939z M4.416,19.214h39.547c1.365,0,2.472-1.229,2.472-2.745l0,0
	c0-1.516-1.107-2.745-2.472-2.745H4.416c-1.365,0-2.472,1.229-2.472,2.745l0,0C1.944,17.986,3.051,19.214,4.416,19.214z M0,2.745
	L0,2.745C0,4.261,1.229,5.49,2.745,5.49h43.919c1.516,0,2.745-1.229,2.745-2.745l0,0C49.409,1.229,48.18,0,46.664,0H2.745
	C1.229,0,0,1.229,0,2.745z"/>
</svg>
